<svg xmlns="http://www.w3.org/2000/svg" width="16" height="16" fill="currentColor" focusable="false" viewBox="0 0 24 24"><path fill-rule="evenodd" clip-rule="evenodd" d="M12 20.57a8.571 8.571 0 1 0 0-17.143 8.571 8.571 0 0 0 0 17.143Zm0 1.714c5.68 0 10.286-4.605 10.286-10.285C22.286 6.318 17.68 1.713 12 1.713c-5.68 0-10.286 4.605-10.286 10.286 0 5.68 4.605 10.285 10.286 10.285ZM15.857 6H8.571v1.714h2.143c.635 0 1.189.345 1.485.857H8.571v1.714H12.2c-.296.513-.85.857-1.485.857H8.571v1.715l3 5.142h1.715l-3-5.142h.428a3.43 3.43 0 0 0 3.32-2.572h1.823V8.57h-1.822a3.407 3.407 0 0 0-.35-.857h2.172V5.999Z"/></svg>